<svg xmlns="http://www.w3.org/2000/svg"><style>:root svg:not(:target){display:none}</style><svg viewBox="0 0 15 12" fill="none" id="arrow-right"><path d="M8.5 11L13.5 6M13.5 6L8.5 1M13.5 6L1.5 6" stroke="currentColor" stroke-width="2" stroke-linecap="round" stroke-linejoin="round"></path></svg><svg viewBox="0 0 18 15" fill="none" id="burger"><rect y="14" width="18" height="1" fill="#1E8702"></rect><rect y="6.99658" width="11" height="1" transform="rotate(0.0277073 0 6.99658)" fill="#1E8702"></rect><rect width="18" height="1" fill="#1E8702"></rect></svg><svg viewBox="0 0 15 13" fill="none" id="check-mark"><path d="M1 6.71429L6.00004 11L13.8573 1" stroke="white" stroke-width="2"></path></svg><svg viewBox="0 0 13 14" fill="none" id="close"><path d="M-0.44 0.31L11.93 12.68M11.93 0.31L-0.44 12.68" stroke="#1E8702" stroke-opacity="1.000000" stroke-width="1.000000" stroke-linejoin="round"></path></svg><svg viewBox="0 0 50 50" fill="none" id="map"><path d="M16.6665 8.38487C12.7763 8.82031 8.04144 12.0455 5.67098 13.8379C4.69854 14.5732 4.1665 15.733 4.1665 16.9521V37.0967C4.1665 38.8748 6.30796 39.9058 7.78373 38.9141C10.3035 37.2208 13.7263 35.2981 16.6665 34.9689M16.6665 8.38487C23.5796 7.61107 26.42 15.8047 33.3332 15.0309M16.6665 8.38487V34.9689M33.3332 15.0309C36.2734 14.7018 39.6962 12.779 42.2159 11.0857C43.6917 10.094 45.8332 11.1251 45.8332 12.9031V33.0477C45.8332 34.2669 45.3011 35.4267 44.3287 36.162C41.9582 37.9543 37.2233 41.1795 33.3332 41.615M33.3332 15.0309V41.615M16.6665 34.9689C23.5796 34.1951 26.42 42.3888 33.3332 41.615" stroke="#1E1E1E" stroke-width="2"></path></svg><svg viewBox="0 0 35 35" fill="none" id="minus"><path d="M26.25 17.5L8.75 17.5" stroke="#1E1E1E" stroke-width="2" stroke-linecap="round" stroke-linejoin="round"></path></svg><svg viewBox="0 0 50 50" fill="none" id="note"><path d="M13 17V5H19.4V17C19.4 17 17.8102 14.4 16.2 14.4C14.5898 14.4 13 17 13 17Z" stroke="#1E1E1E" stroke-linecap="round"></path><path d="M7 7.2C7 5.98497 7.98497 5 9.2 5H40.8C42.015 5 43 5.98497 43 7.2V42.8C43 44.015 42.015 45 40.8 45H9.2C7.98497 45 7 44.015 7 42.8V7.2Z" stroke="#1E1E1E" stroke-width="2"></path><path d="M11 25H37" stroke="#1E1E1E" stroke-width="2"></path><path d="M11 31H30" stroke="#1E1E1E" stroke-width="2"></path><path d="M11 37H34" stroke="#1E1E1E" stroke-width="2"></path></svg><svg viewBox="0 0 35 35" fill="none" id="plus"><path d="M17.5 8.75V26.25M26.25 17.5L8.75 17.5" stroke="#1E1E1E" stroke-width="2" stroke-linecap="round" stroke-linejoin="round"></path></svg><svg viewBox="0 0 50 50" fill="none" id="season"><path d="M41.6665 6.25C43.9677 6.25 45.8332 8.11548 45.8332 10.4167V39.5833C45.8332 41.8845 43.9677 43.75 41.6665 43.75C39.3653 43.75 37.4998 41.8845 37.4998 39.5833V10.4167C37.4998 8.11548 39.3653 6.25 41.6665 6.25Z" stroke="#1E1E1E" stroke-width="2"></path><path d="M8.33317 22.9167C10.6344 22.9167 12.4998 24.7821 12.4998 27.0833L12.4998 39.5833C12.4998 41.8845 10.6344 43.75 8.33317 43.75C6.03198 43.75 4.1665 41.8845 4.1665 39.5833L4.1665 27.0833C4.1665 24.7821 6.03198 22.9167 8.33317 22.9167Z" stroke="#1E1E1E" stroke-width="2"></path><path d="M24.9998 14.5833C27.301 14.5833 29.1665 16.4488 29.1665 18.75V39.5833C29.1665 41.8845 27.301 43.75 24.9998 43.75C22.6987 43.75 20.8332 41.8845 20.8332 39.5833L20.8332 18.75C20.8332 16.4488 22.6987 14.5833 24.9998 14.5833Z" stroke="#1E1E1E" stroke-width="2"></path></svg><svg viewBox="0 0 12 6" fill="none" id="select-arrow"><path d="M1 1L6 5L11 1" stroke="white" stroke-width="2" stroke-linecap="round" stroke-linejoin="round"></path></svg><svg viewBox="0 0 50 50" fill="none" id="track"><path d="M29.1665 39.5833V14.5833M29.1665 39.5833H33.3332M29.1665 39.5833H18.7498M29.1665 14.5833C29.1665 9.98096 25.4355 6.25 20.8332 6.25H12.4998C7.89746 6.25 4.1665 9.98096 4.1665 14.5833V31.25C4.1665 35.1359 6.82623 38.4006 10.4245 39.3229M29.1665 14.5833H35.8521C36.9107 14.5833 37.9296 14.9863 38.7019 15.7103L44.5163 21.1612C45.3565 21.9489 45.8332 23.0493 45.8332 24.201V35.4167C45.8332 37.7179 43.9677 39.5833 41.6665 39.5833M41.6665 39.5833C41.6665 41.8845 39.801 43.75 37.4998 43.75C35.1987 43.75 33.3332 41.8845 33.3332 39.5833M41.6665 39.5833C41.6665 37.2821 39.801 35.4167 37.4998 35.4167C35.1987 35.4167 33.3332 37.2821 33.3332 39.5833M18.7498 39.5833C18.7498 41.8845 16.8844 43.75 14.5832 43.75C12.282 43.75 10.4165 41.8845 10.4165 39.5833C10.4165 39.4958 10.4192 39.409 10.4245 39.3229M18.7498 39.5833C18.7498 37.2821 16.8844 35.4167 14.5832 35.4167C12.3695 35.4167 10.559 37.143 10.4245 39.3229" stroke="#1E1E1E" stroke-width="2"></path></svg><svg viewBox="0 0 50 50" fill="none" id="update"><path d="M30.9525 4.16663L33.4069 10.6057C30.9389 9.16122 28.0662 8.33329 25.0002 8.33329C15.7954 8.33329 8.3335 15.7952 8.3335 25C8.3335 28.0357 9.14512 30.8819 10.5632 33.3333M19.0478 45.8333L16.5934 39.3942C19.0613 40.8387 21.9341 41.6666 25.0002 41.6666C34.2049 41.6666 41.6668 34.2047 41.6668 25C41.6668 21.9642 40.8552 19.1181 39.4371 16.6666" stroke="#1E1E1E" stroke-width="2" stroke-linecap="round" stroke-linejoin="round"></path></svg><svg viewBox="0 0 50 50" fill="none" id="weather"><path d="M24.9998 4.16675V6.25008M24.9998 43.7501V45.8334M39.7312 10.2687L38.2581 11.7418M11.7416 38.2583L10.2685 39.7315M45.8332 25.0001H43.7498M6.24984 25.0001H4.1665M39.7312 39.7315L38.258 38.2583M11.7416 11.7418L10.2685 10.2687M37.4998 25.0001C37.4998 31.9036 31.9034 37.5001 24.9998 37.5001C18.0963 37.5001 12.4998 31.9036 12.4998 25.0001C12.4998 18.0965 18.0963 12.5001 24.9998 12.5001C31.9034 12.5001 37.4998 18.0965 37.4998 25.0001Z" stroke="#1E1E1E" stroke-width="2" stroke-linecap="round"></path></svg></svg>