<svg width="218" height="32" viewBox="0 0 218 32" fill="none" xmlns="http://www.w3.org/2000/svg">
<path d="M68.97 22L70.68 18.508L66.207 9.04H68.655L71.814 16.222L75.072 9.04H77.385L71.283 22H68.97ZM77.8065 22V12.28H79.5885L83.0715 18.994L86.5635 12.28H88.3365V22H86.2665V16.645L83.5035 22H82.6485L79.8855 16.645V22H77.8065ZM90.8318 22V12.28H93.0008V16.114H97.3658V12.28H99.5348V22H97.3658V18.148H93.0008V22H90.8318ZM106.34 22.27C105.368 22.27 104.519 22.051 103.793 21.613C103.067 21.175 102.503 20.572 102.101 19.804C101.705 19.03 101.507 18.142 101.507 17.14C101.507 16.12 101.711 15.226 102.119 14.458C102.527 13.69 103.094 13.09 103.82 12.658C104.546 12.226 105.386 12.01 106.34 12.01C107.318 12.01 108.17 12.229 108.896 12.667C109.622 13.105 110.186 13.711 110.588 14.485C110.99 15.253 111.191 16.138 111.191 17.14C111.191 18.148 110.987 19.039 110.579 19.813C110.177 20.581 109.613 21.184 108.887 21.622C108.161 22.054 107.312 22.27 106.34 22.27ZM106.34 20.236C107.204 20.236 107.846 19.948 108.266 19.372C108.686 18.796 108.896 18.052 108.896 17.14C108.896 16.198 108.683 15.448 108.257 14.89C107.831 14.326 107.192 14.044 106.34 14.044C105.758 14.044 105.278 14.176 104.9 14.44C104.528 14.698 104.252 15.061 104.072 15.529C103.892 15.991 103.802 16.528 103.802 17.14C103.802 18.082 104.015 18.835 104.441 19.399C104.873 19.957 105.506 20.236 106.34 20.236ZM111.778 22L115.342 17.14L111.994 12.28H114.37L117.529 16.987V12.28H119.455V16.987L122.614 12.28H124.981L121.633 17.14L125.197 22H122.695L119.455 17.293V22H117.529V17.293L114.28 22H111.778ZM129.005 22.27C128.303 22.27 127.709 22.138 127.223 21.874C126.737 21.604 126.368 21.247 126.116 20.803C125.87 20.359 125.747 19.87 125.747 19.336C125.747 18.868 125.825 18.448 125.981 18.076C126.137 17.698 126.377 17.374 126.701 17.104C127.025 16.828 127.445 16.603 127.961 16.429C128.351 16.303 128.807 16.189 129.329 16.087C129.857 15.985 130.427 15.892 131.039 15.808C131.657 15.718 132.302 15.622 132.974 15.52L132.2 15.961C132.206 15.289 132.056 14.794 131.75 14.476C131.444 14.158 130.928 13.999 130.202 13.999C129.764 13.999 129.341 14.101 128.933 14.305C128.525 14.509 128.24 14.86 128.078 15.358L126.098 14.737C126.338 13.915 126.794 13.255 127.466 12.757C128.144 12.259 129.056 12.01 130.202 12.01C131.066 12.01 131.825 12.151 132.479 12.433C133.139 12.715 133.628 13.177 133.946 13.819C134.12 14.161 134.225 14.512 134.261 14.872C134.297 15.226 134.315 15.613 134.315 16.033V22H132.416V19.894L132.731 20.236C132.293 20.938 131.78 21.454 131.192 21.784C130.61 22.108 129.881 22.27 129.005 22.27ZM129.437 20.542C129.929 20.542 130.349 20.455 130.697 20.281C131.045 20.107 131.321 19.894 131.525 19.642C131.735 19.39 131.876 19.153 131.948 18.931C132.062 18.655 132.125 18.34 132.137 17.986C132.155 17.626 132.164 17.335 132.164 17.113L132.83 17.311C132.176 17.413 131.615 17.503 131.147 17.581C130.679 17.659 130.277 17.734 129.941 17.806C129.605 17.872 129.308 17.947 129.05 18.031C128.798 18.121 128.585 18.226 128.411 18.346C128.237 18.466 128.102 18.604 128.006 18.76C127.916 18.916 127.871 19.099 127.871 19.309C127.871 19.549 127.931 19.762 128.051 19.948C128.171 20.128 128.345 20.272 128.573 20.38C128.807 20.488 129.095 20.542 129.437 20.542ZM141.149 11.182C140.651 11.182 140.195 11.059 139.781 10.813C139.367 10.567 139.037 10.24 138.791 9.832C138.545 9.418 138.422 8.959 138.422 8.455H140.114C140.114 8.743 140.213 8.989 140.411 9.193C140.615 9.391 140.861 9.49 141.149 9.49C141.437 9.49 141.68 9.391 141.878 9.193C142.082 8.989 142.184 8.743 142.184 8.455H143.876C143.876 8.959 143.753 9.418 143.507 9.832C143.261 10.24 142.931 10.567 142.517 10.813C142.103 11.059 141.647 11.182 141.149 11.182ZM145.082 12.28V22H143.003V15.655L138.377 22H136.64V12.28H138.719V18.463L143.363 12.28H145.082ZM152.923 22L154.633 18.508L150.16 9.04H152.608L155.767 16.222L159.025 9.04H161.338L155.236 22H152.923ZM166.624 22.27C165.676 22.27 164.881 22.045 164.239 21.595C163.597 21.145 163.114 20.533 162.79 19.759C162.466 18.979 162.304 18.106 162.304 17.14C162.304 16.162 162.466 15.286 162.79 14.512C163.114 13.738 163.588 13.129 164.212 12.685C164.842 12.235 165.619 12.01 166.543 12.01C167.461 12.01 168.256 12.235 168.928 12.685C169.606 13.129 170.131 13.738 170.503 14.512C170.875 15.28 171.061 16.156 171.061 17.14C171.061 18.112 170.878 18.985 170.512 19.759C170.146 20.533 169.63 21.145 168.964 21.595C168.298 22.045 167.518 22.27 166.624 22.27ZM161.935 26.32V12.28H163.852V19.102H164.122V26.32H161.935ZM166.291 20.326C166.855 20.326 167.32 20.185 167.686 19.903C168.052 19.621 168.322 19.24 168.496 18.76C168.676 18.274 168.766 17.734 168.766 17.14C168.766 16.552 168.676 16.018 168.496 15.538C168.316 15.052 168.037 14.668 167.659 14.386C167.281 14.098 166.801 13.954 166.219 13.954C165.667 13.954 165.217 14.089 164.869 14.359C164.521 14.623 164.263 14.995 164.095 15.475C163.933 15.949 163.852 16.504 163.852 17.14C163.852 17.77 163.933 18.325 164.095 18.805C164.263 19.285 164.524 19.66 164.878 19.93C165.238 20.194 165.709 20.326 166.291 20.326ZM177.338 22.27C176.366 22.27 175.517 22.051 174.791 21.613C174.065 21.175 173.501 20.572 173.099 19.804C172.703 19.03 172.505 18.142 172.505 17.14C172.505 16.12 172.709 15.226 173.117 14.458C173.525 13.69 174.092 13.09 174.818 12.658C175.544 12.226 176.384 12.01 177.338 12.01C178.316 12.01 179.168 12.229 179.894 12.667C180.62 13.105 181.184 13.711 181.586 14.485C181.988 15.253 182.189 16.138 182.189 17.14C182.189 18.148 181.985 19.039 181.577 19.813C181.175 20.581 180.611 21.184 179.885 21.622C179.159 22.054 178.31 22.27 177.338 22.27ZM177.338 20.236C178.202 20.236 178.844 19.948 179.264 19.372C179.684 18.796 179.894 18.052 179.894 17.14C179.894 16.198 179.681 15.448 179.255 14.89C178.829 14.326 178.19 14.044 177.338 14.044C176.756 14.044 176.276 14.176 175.898 14.44C175.526 14.698 175.25 15.061 175.07 15.529C174.89 15.991 174.8 16.528 174.8 17.14C174.8 18.082 175.013 18.835 175.439 19.399C175.871 19.957 176.504 20.236 177.338 20.236ZM182.776 22L186.34 17.14L182.992 12.28H185.368L188.527 16.987V12.28H190.453V16.987L193.612 12.28H195.979L192.631 17.14L196.195 22H193.693L190.453 17.293V22H188.527V17.293L185.278 22H182.776ZM200.003 22.27C199.301 22.27 198.707 22.138 198.221 21.874C197.735 21.604 197.366 21.247 197.114 20.803C196.868 20.359 196.745 19.87 196.745 19.336C196.745 18.868 196.823 18.448 196.979 18.076C197.135 17.698 197.375 17.374 197.699 17.104C198.023 16.828 198.443 16.603 198.959 16.429C199.349 16.303 199.805 16.189 200.327 16.087C200.855 15.985 201.425 15.892 202.037 15.808C202.655 15.718 203.3 15.622 203.972 15.52L203.198 15.961C203.204 15.289 203.054 14.794 202.748 14.476C202.442 14.158 201.926 13.999 201.2 13.999C200.762 13.999 200.339 14.101 199.931 14.305C199.523 14.509 199.238 14.86 199.076 15.358L197.096 14.737C197.336 13.915 197.792 13.255 198.464 12.757C199.142 12.259 200.054 12.01 201.2 12.01C202.064 12.01 202.823 12.151 203.477 12.433C204.137 12.715 204.626 13.177 204.944 13.819C205.118 14.161 205.223 14.512 205.259 14.872C205.295 15.226 205.313 15.613 205.313 16.033V22H203.414V19.894L203.729 20.236C203.291 20.938 202.778 21.454 202.19 21.784C201.608 22.108 200.879 22.27 200.003 22.27ZM200.435 20.542C200.927 20.542 201.347 20.455 201.695 20.281C202.043 20.107 202.319 19.894 202.523 19.642C202.733 19.39 202.874 19.153 202.946 18.931C203.06 18.655 203.123 18.34 203.135 17.986C203.153 17.626 203.162 17.335 203.162 17.113L203.828 17.311C203.174 17.413 202.613 17.503 202.145 17.581C201.677 17.659 201.275 17.734 200.939 17.806C200.603 17.872 200.306 17.947 200.048 18.031C199.796 18.121 199.583 18.226 199.409 18.346C199.235 18.466 199.1 18.604 199.004 18.76C198.914 18.916 198.869 19.099 198.869 19.309C198.869 19.549 198.929 19.762 199.049 19.948C199.169 20.128 199.343 20.272 199.571 20.38C199.805 20.488 200.093 20.542 200.435 20.542ZM212.147 11.182C211.649 11.182 211.193 11.059 210.779 10.813C210.365 10.567 210.035 10.24 209.789 9.832C209.543 9.418 209.42 8.959 209.42 8.455H211.112C211.112 8.743 211.211 8.989 211.409 9.193C211.613 9.391 211.859 9.49 212.147 9.49C212.435 9.49 212.678 9.391 212.876 9.193C213.08 8.989 213.182 8.743 213.182 8.455H214.874C214.874 8.959 214.751 9.418 214.505 9.832C214.259 10.24 213.929 10.567 213.515 10.813C213.101 11.059 212.645 11.182 212.147 11.182ZM216.08 12.28V22H214.001V15.655L209.375 22H207.638V12.28H209.717V18.463L214.361 12.28H216.08Z" fill="#0E504C"/>
<path d="M19 31.9153C22.9207 30.378 25.5793 27.5153 27.6471 24.096C30.3056 19.6695 32.991 15.2696 35.3274 10.684C38.9527 3.58043 44.8606 0.320192 52.6752 0.0551323C55.3069 -0.0508916 57.9386 0.0286267 61 0.0286267C59.711 0.717782 58.6637 1.08887 57.8043 1.75151C55.5486 3.42139 54.0179 5.64789 52.6483 8.03343C50.1777 12.3274 47.5729 16.5949 45.3171 20.9948C42.578 26.3756 38.1739 29.4237 32.4003 30.8551C28.023 31.9153 23.5384 32.1539 19 31.9153Z" fill="#1E8702"/>
<path d="M0 0.0938322C5.71266 0.0131892 11.4253 -0.470668 16.8673 1.92174C20.1162 3.34643 22.607 5.6582 24.421 8.61511C26.3432 11.7602 27.9135 15.1203 31 17.9697C26.1808 17.7815 21.7677 18.4804 17.4358 17.2439C14.5659 16.4106 12.4271 14.5558 10.7485 12.1634C9.6655 10.6043 8.77205 8.93768 7.7703 7.32482C5.84803 4.20662 3.62795 1.411 0 0.0938322Z" fill="#C6DB02"/>
</svg>
