<svg width="50" height="50" viewBox="0 0 50 50" fill="none" xmlns="http://www.w3.org/2000/svg">
<path d="M16.6665 8.38487C12.7763 8.82031 8.04144 12.0455 5.67098 13.8379C4.69854 14.5732 4.1665 15.733 4.1665 16.9521V37.0967C4.1665 38.8748 6.30796 39.9058 7.78373 38.9141C10.3035 37.2208 13.7263 35.2981 16.6665 34.9689M16.6665 8.38487C23.5796 7.61107 26.42 15.8047 33.3332 15.0309M16.6665 8.38487V34.9689M33.3332 15.0309C36.2734 14.7018 39.6962 12.779 42.2159 11.0857C43.6917 10.094 45.8332 11.1251 45.8332 12.9031V33.0477C45.8332 34.2669 45.3011 35.4267 44.3287 36.162C41.9582 37.9543 37.2233 41.1795 33.3332 41.615M33.3332 15.0309V41.615M16.6665 34.9689C23.5796 34.1951 26.42 42.3888 33.3332 41.615" stroke="#1E1E1E" stroke-width="2"/>
</svg>
