<svg width="50" height="50" viewBox="0 0 50 50" fill="none" xmlns="http://www.w3.org/2000/svg">
<path d="M41.6665 6.25C43.9677 6.25 45.8332 8.11548 45.8332 10.4167V39.5833C45.8332 41.8845 43.9677 43.75 41.6665 43.75C39.3653 43.75 37.4998 41.8845 37.4998 39.5833V10.4167C37.4998 8.11548 39.3653 6.25 41.6665 6.25Z" stroke="#1E1E1E" stroke-width="2"/>
<path d="M8.33317 22.9167C10.6344 22.9167 12.4998 24.7821 12.4998 27.0833L12.4998 39.5833C12.4998 41.8845 10.6344 43.75 8.33317 43.75C6.03198 43.75 4.1665 41.8845 4.1665 39.5833L4.1665 27.0833C4.1665 24.7821 6.03198 22.9167 8.33317 22.9167Z" stroke="#1E1E1E" stroke-width="2"/>
<path d="M24.9998 14.5833C27.301 14.5833 29.1665 16.4488 29.1665 18.75V39.5833C29.1665 41.8845 27.301 43.75 24.9998 43.75C22.6987 43.75 20.8332 41.8845 20.8332 39.5833L20.8332 18.75C20.8332 16.4488 22.6987 14.5833 24.9998 14.5833Z" stroke="#1E1E1E" stroke-width="2"/>
</svg>
