<svg width="50" height="50" viewBox="0 0 50 50" fill="none" xmlns="http://www.w3.org/2000/svg">
<path d="M29.1665 39.5833V14.5833M29.1665 39.5833H33.3332M29.1665 39.5833H18.7498M29.1665 14.5833C29.1665 9.98096 25.4355 6.25 20.8332 6.25H12.4998C7.89746 6.25 4.1665 9.98096 4.1665 14.5833V31.25C4.1665 35.1359 6.82623 38.4006 10.4245 39.3229M29.1665 14.5833H35.8521C36.9107 14.5833 37.9296 14.9863 38.7019 15.7103L44.5163 21.1612C45.3565 21.9489 45.8332 23.0493 45.8332 24.201V35.4167C45.8332 37.7179 43.9677 39.5833 41.6665 39.5833M41.6665 39.5833C41.6665 41.8845 39.801 43.75 37.4998 43.75C35.1987 43.75 33.3332 41.8845 33.3332 39.5833M41.6665 39.5833C41.6665 37.2821 39.801 35.4167 37.4998 35.4167C35.1987 35.4167 33.3332 37.2821 33.3332 39.5833M18.7498 39.5833C18.7498 41.8845 16.8844 43.75 14.5832 43.75C12.282 43.75 10.4165 41.8845 10.4165 39.5833C10.4165 39.4958 10.4192 39.409 10.4245 39.3229M18.7498 39.5833C18.7498 37.2821 16.8844 35.4167 14.5832 35.4167C12.3695 35.4167 10.559 37.143 10.4245 39.3229" stroke="#1E1E1E" stroke-width="2"/>
</svg>
